<svg width="100" height="100" viewBox="0 0 100 100" fill="none" xmlns="http://www.w3.org/2000/svg">
<path opacity="0.4" fill-rule="evenodd" clip-rule="evenodd" d="M95.8327 63.4165C97.5586 63.4165 98.9577 64.8156 98.9577 66.5415C98.9577 84.3924 84.5169 98.8332 66.666 98.8332C65.5402 98.8332 64.5013 98.2276 63.9466 97.2478C63.3919 96.2681 63.4071 95.0658 63.9863 94.1004L68.3613 86.8087C69.2493 85.3288 71.1689 84.8489 72.6488 85.7368C74.1287 86.6248 74.6086 88.5444 73.7207 90.0243L72.5902 91.9084C84.1281 89.2316 92.7077 78.9022 92.7077 66.5415C92.7077 64.8156 94.1068 63.4165 95.8327 63.4165Z" fill="#330045"/>
<path opacity="0.4" fill-rule="evenodd" clip-rule="evenodd" d="M27.4085 7.84124C15.8706 10.518 7.29102 20.8474 7.29102 33.2082C7.29102 34.9341 5.89191 36.3332 4.16602 36.3332C2.44013 36.3332 1.04102 34.9341 1.04102 33.2082C1.04102 15.3573 15.4818 0.916504 33.3327 0.916504C34.4585 0.916504 35.4974 1.52211 36.0521 2.50182C36.6068 3.48153 36.5916 4.68389 36.0124 5.6493L31.6374 12.941C30.7494 14.4209 28.8298 14.9008 27.3499 14.0128C25.8699 13.1249 25.3901 11.2053 26.278 9.72537L27.4085 7.84124Z" fill="#330045"/>
<path opacity="0.4" d="M61.8756 63.875C61.8756 78.0833 50.3757 89.5833 36.1673 89.5833C21.959 89.5833 10.459 78.0833 10.459 63.875C10.459 49.6667 21.959 38.1665 36.1673 38.1665C36.834 38.1665 37.459 38.2083 38.1673 38.2499C50.7923 39.2083 60.8757 49.2916 61.834 61.9166C61.834 62.5416 61.8756 63.1667 61.8756 63.875Z" fill="#330045"/>
<path d="M89.5827 36.1248C89.5827 50.3331 78.0827 61.8333 63.8744 61.8333H61.8327C60.8743 49.2083 50.791 39.1247 38.166 38.1664V36.1248C38.166 21.9164 49.666 10.4165 63.8744 10.4165C78.0827 10.4165 89.5827 21.9164 89.5827 36.1248Z" fill="#330045"/>
<path d="M46.334 62.5417C46.834 61.5 47.1257 60.375 47.1257 59.1667C47.1257 55 43.459 51.3334 39.2923 51.3334H38.209V49.75C38.209 48.0417 36.7923 46.625 35.084 46.625C33.3756 46.625 31.959 48.0417 31.959 49.75V51.3334H27.584C25.8757 51.3334 24.459 52.75 24.459 54.4584V63.8334V73.2084C24.459 74.9167 25.8757 76.3334 27.584 76.3334H31.959V77.9167C31.959 79.625 33.3756 81.0417 35.084 81.0417C36.7923 81.0417 38.209 79.625 38.209 77.9167V76.3334H40.959C45.6257 76.3334 49.459 72.8333 49.459 68.5C49.459 66.125 48.209 63.9584 46.334 62.5417ZM30.709 57.5834H39.2923C40.1673 57.5834 40.8757 58.5417 40.8757 59.1667C40.8757 60.0417 40.1673 60.7501 39.2923 60.7501H30.709V57.5834ZM40.959 70.1251H30.6673V67.0001H39.2506H40.9173C42.2507 67.0001 43.1673 67.8334 43.1673 68.5834C43.1673 69.3334 42.2923 70.1251 40.959 70.1251Z" fill="#330045"/>
</svg>
