<svg width="100" height="100" viewBox="0 0 100 100" fill="none" xmlns="http://www.w3.org/2000/svg">
<path d="M90.2923 28.9585C87.6257 19.9168 80.084 12.3752 71.0423 9.7085C64.1673 7.7085 59.4173 7.87517 56.1257 10.3335C52.1673 13.2918 51.709 18.6252 51.709 22.4168V32.7918C51.709 43.0418 56.3756 48.2502 65.5423 48.2502H77.5007C81.2507 48.2502 86.6257 47.7918 89.584 43.8335C92.1257 40.5835 92.334 35.8335 90.2923 28.9585Z" fill="#330045"/>
<path opacity="0.4" d="M78.7915 55.6668C77.7081 54.4168 76.1248 53.7085 74.4998 53.7085H59.5831C52.2498 53.7085 46.2915 47.7501 46.2915 40.4168V25.5001C46.2915 23.8751 45.5831 22.2918 44.3331 21.2085C43.1248 20.1251 41.4581 19.6251 39.8748 19.8335C30.0832 21.0835 21.0832 26.4585 15.2082 34.5418C9.29149 42.6668 7.12482 52.5835 8.99982 62.5001C11.7082 76.8335 23.1665 88.2918 37.5415 91.0001C39.8332 91.4585 42.1248 91.6668 44.4165 91.6668C51.9581 91.6668 59.2498 89.3335 65.4581 84.7918C73.5415 78.9168 78.9165 69.9168 80.1665 60.1251C80.3748 58.5001 79.8748 56.8751 78.7915 55.6668Z" fill="#330045"/>
</svg>
