<svg width="36" height="36" viewBox="0 0 36 36" fill="none" xmlns="http://www.w3.org/2000/svg">
<circle cx="18" cy="18" r="18" fill="white"/>
<path fill-rule="evenodd" clip-rule="evenodd" d="M25.3114 12.9457C25.1133 12.4332 24.8103 11.9677 24.4217 11.5792C24.0332 11.1907 23.5678 10.8877 23.0553 10.6896C22.5645 10.4987 22.0035 10.3684 21.1829 10.3309C20.3623 10.2933 20.0972 10.2856 18.0017 10.2856C15.9063 10.2856 15.6444 10.2947 14.8215 10.3309C13.9986 10.3671 13.4395 10.4987 12.9491 10.6896C12.4365 10.8875 11.971 11.1905 11.5824 11.579C11.1939 11.9676 10.8909 12.4331 10.693 12.9457C10.5021 13.4365 10.3714 13.997 10.3343 14.8181C10.2972 15.6392 10.2891 15.9038 10.2891 17.9988C10.2891 20.0938 10.2981 20.3566 10.3343 21.1795C10.3705 22.0024 10.5021 22.5611 10.693 23.0519C10.8911 23.5644 11.1941 24.0298 11.5826 24.4184C11.9712 24.8069 12.4366 25.1099 12.9491 25.308C13.4395 25.4989 14.0004 25.6292 14.8215 25.6667C15.6426 25.7043 15.9072 25.712 18.0017 25.712C20.0963 25.712 20.36 25.7029 21.1829 25.6667C22.0058 25.6305 22.5645 25.4989 23.0553 25.308C23.5677 25.1097 24.033 24.8066 24.4215 24.4181C24.81 24.0296 25.1131 23.5643 25.3114 23.0519C25.5023 22.5611 25.6326 22.0006 25.6701 21.1795C25.7077 20.3584 25.7154 20.0938 25.7154 17.9988C25.7154 15.9038 25.7068 15.641 25.6701 14.8181C25.6335 13.9952 25.5023 13.4365 25.3114 12.9457ZM18.0017 21.9599C17.2182 21.9599 16.4523 21.7275 15.8008 21.2922C15.1493 20.8569 14.6416 20.2382 14.3417 19.5143C14.0419 18.7904 13.9635 17.9938 14.1163 17.2253C14.2692 16.4568 14.6466 15.751 15.2007 15.197C15.7547 14.643 16.4607 14.2657 17.2292 14.1129C17.9977 13.9601 18.7942 14.0386 19.5181 14.3385C20.2419 14.6384 20.8606 15.1462 21.2959 15.7978C21.7311 16.4493 21.9634 17.2153 21.9633 17.9988C21.9633 18.519 21.8608 19.0341 21.6617 19.5147C21.4626 19.9953 21.1708 20.432 20.8029 20.7999C20.4351 21.1677 19.9983 21.4594 19.5177 21.6585C19.0371 21.8575 18.5219 21.9599 18.0017 21.9599V21.9599ZM22.1184 14.8068C21.9353 14.8068 21.7563 14.7525 21.604 14.6507C21.4517 14.549 21.333 14.4043 21.2629 14.2351C21.1928 14.0659 21.1745 13.8797 21.2102 13.7001C21.2459 13.5205 21.3341 13.3554 21.4636 13.2259C21.5931 13.0964 21.7582 13.0082 21.9378 12.9725C22.1174 12.9368 22.3036 12.9551 22.4728 13.0252C22.642 13.0953 22.7867 13.214 22.8884 13.3663C22.9902 13.5186 23.0445 13.6976 23.0445 13.8807C23.0445 14.1258 22.9474 14.3609 22.7744 14.5344C22.6014 14.708 22.3667 14.8059 22.1216 14.8068H22.1184ZM20.5722 17.9988C20.5723 18.5075 20.4215 19.0048 20.139 19.4277C19.8564 19.8507 19.4548 20.1804 18.9849 20.3752C18.5149 20.5699 17.9979 20.6209 17.4989 20.5217C17 20.4225 16.5417 20.1776 16.182 19.8179C15.8223 19.4583 15.5773 19 15.4781 18.5011C15.3788 18.0023 15.4297 17.4851 15.6243 17.0152C15.819 16.5452 16.1486 16.1435 16.5715 15.8609C16.9944 15.5783 17.4917 15.4274 18.0004 15.4274C18.3382 15.4272 18.6728 15.4935 18.985 15.6227C19.2971 15.7518 19.5808 15.9411 19.8198 16.1799C20.0588 16.4187 20.2483 16.7023 20.3776 17.0144C20.507 17.3265 20.5736 17.661 20.5736 17.9988H20.5722Z" fill="#C4C4C4"/>
</svg>
