<svg width="36" height="36" viewBox="0 0 36 36" fill="none" xmlns="http://www.w3.org/2000/svg">
<circle cx="18" cy="18" r="18" fill="white"/>
<g clip-path="url(#clip0_395_739)">
<path fill-rule="evenodd" clip-rule="evenodd" d="M10.5415 15.4094H13.7443V25.7147H10.5415V15.4094ZM25.7384 20.0621V25.7147H22.5375V20.7029C22.5375 19.5081 22.5154 17.9707 20.8729 17.9707C19.2063 17.9707 18.9504 19.2725 18.9504 20.6168V25.7147H15.7502V15.4094H18.8226V16.8176H18.865C19.293 16.0071 20.3378 15.1529 21.8961 15.1529C25.1419 15.1529 25.7415 17.2874 25.7415 20.0609L25.7384 20.0621ZM13.9976 12.1459C13.9977 12.5132 13.8889 12.8724 13.6848 13.1779C13.4808 13.4834 13.1907 13.7215 12.8514 13.8622C12.512 14.0028 12.1385 14.0396 11.7782 13.968C11.4179 13.8964 11.0869 13.7195 10.8272 13.4597C10.5674 13.1999 10.3905 12.869 10.3189 12.5086C10.2472 12.1483 10.284 11.7749 10.4247 11.4355C10.5653 11.0961 10.8035 10.8061 11.109 10.602C11.4145 10.398 11.7736 10.2892 12.141 10.2893C12.6332 10.2898 13.1052 10.4856 13.4532 10.8336C13.8013 11.1817 13.9971 11.6536 13.9976 12.1459Z" fill="#C4C4C4"/>
</g>
<defs>
<clipPath id="clip0_395_739">
<rect width="15.4552" height="15.4286" fill="white" transform="translate(10.2852 10.2856)"/>
</clipPath>
</defs>
</svg>
