<svg width="100" height="100" viewBox="0 0 100 100" fill="none" xmlns="http://www.w3.org/2000/svg">
<path opacity="0.4" d="M73.0423 32.3752C72.7506 32.3335 72.459 32.3335 72.1673 32.3752C65.709 32.1668 60.584 26.8752 60.584 20.3752C60.584 13.7502 65.959 8.3335 72.6256 8.3335C79.2506 8.3335 84.6673 13.7085 84.6673 20.3752C84.6256 26.8752 79.5006 32.1668 73.0423 32.3752Z" fill="#330045"/>
<path opacity="0.4" d="M86.6244 61.2502C81.9577 64.3752 75.416 65.5418 69.3744 64.7502C70.9577 61.3335 71.791 57.5419 71.8327 53.5419C71.8327 49.3752 70.916 45.4169 69.166 41.9586C75.3327 41.1252 81.8744 42.2918 86.5827 45.4168C93.166 49.7502 93.166 56.8752 86.6244 61.2502Z" fill="#330045"/>
<path opacity="0.4" d="M26.834 32.3752C27.1256 32.3335 27.4173 32.3335 27.709 32.3752C34.1673 32.1668 39.2923 26.8752 39.2923 20.3752C39.2923 13.7502 33.9173 8.3335 27.2506 8.3335C20.6256 8.3335 15.209 13.7085 15.209 20.3752C15.2507 26.8752 20.3756 32.1668 26.834 32.3752Z" fill="#330045"/>
<path opacity="0.4" d="M27.2917 53.5417C27.2917 57.5834 28.1667 61.4167 29.75 64.8751C23.875 65.5001 17.75 64.25 13.25 61.2917C6.66667 56.9167 6.66667 49.7917 13.25 45.4167C17.7083 42.4167 24 41.2084 29.9167 41.875C28.2083 45.375 27.2917 49.3334 27.2917 53.5417Z" fill="#330045"/>
<path d="M50.5 66.125C50.1667 66.0833 49.7917 66.0833 49.4167 66.125C41.75 65.875 35.625 59.5833 35.625 51.8333C35.625 43.9167 42 37.5 49.9583 37.5C57.875 37.5 64.2917 43.9167 64.2917 51.8333C64.2917 59.5833 58.2083 65.875 50.5 66.125Z" fill="#330045"/>
<path d="M36.959 74.75C30.6673 78.9583 30.6673 85.875 36.959 90.0417C44.1257 94.8333 55.8757 94.8333 63.0423 90.0417C69.334 85.8333 69.334 78.9167 63.0423 74.75C55.9173 69.9583 44.1673 69.9583 36.959 74.75Z" fill="#330045"/>
</svg>
