<svg width="100" height="100" viewBox="0 0 100 100" fill="none" xmlns="http://www.w3.org/2000/svg">
<path opacity="0.8" d="M53.7493 10.5002L53.6243 10.7919L41.541 38.8335H29.666C26.8327 38.8335 24.166 39.3752 21.666 40.4585L28.9577 23.0419L29.1243 22.6669L29.3743 22.0002C29.4993 21.7085 29.5827 21.4585 29.7077 21.2502C35.166 8.62521 41.3327 5.75021 53.7493 10.5002Z" fill="#330045"/>
<path d="M76.2077 39.6667C74.3327 39.125 72.3743 38.8333 70.3327 38.8333H41.541L53.6243 10.7917L53.7493 10.5C54.3327 10.7083 54.9577 11 55.5827 11.2083L64.791 15.0833C69.916 17.2083 73.4993 19.4167 75.7077 22.0833C76.0827 22.5833 76.416 23.0417 76.7493 23.5833C77.1243 24.1667 77.416 24.75 77.5827 25.375C77.7494 25.75 77.8743 26.0833 77.9577 26.4583C79.041 30 78.3744 34.2917 76.2077 39.6667Z" fill="#330045"/>
<path opacity="0.4" d="M90.6673 59.1668V67.2918C90.6673 68.1252 90.6256 68.9585 90.584 69.7502C89.7923 84.3335 81.6673 91.6668 66.2506 91.6668H33.7507C32.709 91.6668 31.7506 91.5835 30.7923 91.4585C17.5423 90.5835 10.459 83.5002 9.54232 70.2502C9.41732 69.2502 9.33398 68.2918 9.33398 67.2918V59.1668C9.33398 50.7918 14.4173 43.5835 21.6673 40.4585C24.1673 39.3752 26.834 38.8335 29.6673 38.8335H70.334C72.3756 38.8335 74.334 39.1252 76.209 39.6668C84.5423 42.2085 90.6673 49.9585 90.6673 59.1668Z" fill="#330045"/>
<path opacity="0.6" d="M28.959 23.0415L21.6673 40.4582C14.4173 43.5832 9.33398 50.7915 9.33398 59.1665V46.9582C9.33398 35.1248 17.7507 25.2498 28.959 23.0415Z" fill="#330045"/>
<path opacity="0.6" d="M90.6673 46.9583V59.1667C90.6673 49.9583 84.5423 42.2083 76.209 39.6667C78.3757 34.2917 79.0423 30 77.959 26.4583C77.8756 26.0833 77.7507 25.75 77.584 25.375C85.3757 29.4167 90.6673 37.625 90.6673 46.9583Z" fill="#330045"/>
<path d="M60.4173 61.2082H53.1257V54.1665C53.1257 52.4582 51.709 51.0415 50.0007 51.0415C48.2923 51.0415 46.8757 52.4582 46.8757 54.1665V61.2082H39.584C37.8757 61.2082 36.459 62.6248 36.459 64.3332C36.459 66.0415 37.8757 67.4582 39.584 67.4582H46.8757V74.9998C46.8757 76.7082 48.2923 78.1248 50.0007 78.1248C51.709 78.1248 53.1257 76.7082 53.1257 74.9998V67.4582H60.4173C62.1257 67.4582 63.5423 66.0415 63.5423 64.3332C63.5423 62.6248 62.1257 61.2082 60.4173 61.2082Z" fill="#330045"/>
</svg>
